# xmcd
#
# Track frame offsets:
#	182
#	23205
#	43902
#	65332
#	84502
#	102785
#	123360
#	141737
#	160715
#	182247
#	201275
#	215442
# 
# Disc length: 3208 seconds
# 
# Revision: 5
# Processed by: cddbd v1.4PL0 Copyright (c) Steve Scherf et al.
# Submitted via: Advanced CD Ripper Pro
#
DISCID=ae0c860c
DTITLE=Sarah Brightman - Timeless
DYEAR=1900
DGENRE=
TTITLE0=No One Like You
TTITLE1=Just Show Me How To Love You
TTITLE2=Tu Quires Volver
TTITLE3=In Pace
TTITLE4=There For Me
TTITLE5=Bilitis - G n rique
TTITLE6=Who Wants To Live Forever
TTITLE7=La Wally
TTITLE8=Naturaleza Muerta
TTITLE9=En Aranjuez Con Tu Amor
TTITLE10=In Trutina
TTITLE11=Time To Say Goodbye (Con Te Partir ) - A Tribute To Henry Maske -
EXTD=
EXTT0=
EXTT1=feat. Jos  Cura\n
EXTT2=
EXTT3=
EXTT4=feat. Jos  Cura\n
EXTT5=
EXTT6=
EXTT7=
EXTT8=
EXTT9=
EXTT10=
EXTT11=feat. Andrea Bocelli\n
PLAYORDER=
